<svg width="30" height="30" viewBox="0 0 30 30" fill="none" xmlns="http://www.w3.org/2000/svg">
<path d="M25.6064 4.39077C19.7484 -1.46652 10.2506 -1.46717 4.392 4.39077C-1.46595 10.2487 -1.4653 19.7465 4.392 25.6051C10.25 31.4618 19.7478 31.4624 25.6064 25.6051C31.4637 19.7465 31.463 10.2494 25.6064 4.39077ZM16.9551 21.5198C16.9551 22.6005 16.0792 23.4764 14.9985 23.4764C13.9179 23.4764 13.042 22.6005 13.042 21.5198V13.6936C13.042 12.6129 13.9179 11.737 14.9985 11.737C16.0792 11.737 16.9551 12.6129 16.9551 13.6936V21.5198ZM14.964 10.3492C13.837 10.3492 13.0857 9.55088 13.1091 8.56542C13.0857 7.53236 13.837 6.75821 14.9868 6.75821C16.1373 6.75821 16.8651 7.53301 16.8892 8.56542C16.8886 9.55088 16.1379 10.3492 14.964 10.3492Z" fill="#394267"/>
</svg>
