<svg width="12" height="20" viewBox="0 0 12 20" fill="none" xmlns="http://www.w3.org/2000/svg">
<path d="M9.24465 19.6167C9.49267 19.8647 9.80834 20 10.1804 20C10.9245 20 11.522 19.4138 11.522 18.6697C11.522 18.2976 11.3641 17.9594 11.1048 17.7001L3.21308 9.98873L11.1048 2.29989C11.3641 2.04059 11.522 1.69109 11.522 1.33033C11.522 0.586246 10.9245 0 10.1804 0C9.80834 0 9.49267 0.135287 9.24465 0.383315L0.473506 8.95152C0.157835 9.24465 0.011274 9.60541 0 10C0 10.3946 0.157835 10.7328 0.473506 11.0372L9.24465 19.6167Z" fill="#394267"/>
</svg>
