<svg width="29" height="30" viewBox="0 0 29 30" fill="none" xmlns="http://www.w3.org/2000/svg">
<path d="M6.2637 20.293C6.55661 20.293 6.79491 20.5313 6.79491 20.8242C6.79491 21.0669 6.99167 21.2637 7.23436 21.2637C7.47706 21.2637 7.67382 21.0669 7.67382 20.8242C7.67382 20.2001 7.26612 19.6697 6.70315 19.4846V19.3682C6.70315 19.1255 6.50639 18.9287 6.2637 18.9287C6.021 18.9287 5.82424 19.1255 5.82424 19.3682V19.4846C5.26127 19.6697 4.85352 20.2001 4.85352 20.8242C4.85352 21.6018 5.4861 22.2344 6.2637 22.2344C6.55661 22.2344 6.79491 22.4727 6.79491 22.7656C6.79491 23.0586 6.55661 23.2969 6.2637 23.2969C5.97078 23.2969 5.73242 23.0586 5.73242 22.7656C5.73242 22.5229 5.53567 22.3262 5.29297 22.3262C5.05027 22.3262 4.85352 22.5229 4.85352 22.7656C4.85352 23.3897 5.26127 23.9201 5.82424 24.1053V24.2217C5.82424 24.4644 6.021 24.6611 6.2637 24.6611C6.50639 24.6611 6.70315 24.4644 6.70315 24.2217V24.1053C7.26612 23.9201 7.67382 23.3897 7.67382 22.7656C7.67382 21.9881 7.04124 21.3555 6.2637 21.3555C5.97078 21.3555 5.73242 21.1172 5.73242 20.8242C5.73242 20.5313 5.97073 20.293 6.2637 20.293Z" fill="#394267"/>
<path d="M9.95844 19.551C9.83234 19.3438 9.56193 19.2779 9.35457 19.4041C9.1472 19.5302 9.08146 19.8006 9.20761 20.0079C9.53433 20.5448 9.70701 21.1628 9.70701 21.795C9.70701 23.6937 8.1623 25.2384 6.26363 25.2384C4.36496 25.2384 2.82031 23.6937 2.82031 21.795C2.82031 19.8963 4.36502 18.3516 6.26369 18.3516C6.90974 18.3516 7.53927 18.5314 8.0842 18.8716C8.29009 19.0001 8.56115 18.9374 8.68965 18.7315C8.8182 18.5256 8.7555 18.2546 8.54961 18.126C7.86494 17.6986 7.07445 17.4727 6.26363 17.4727C3.88033 17.4727 1.94135 19.4116 1.94135 21.7949C1.94135 24.1782 3.88033 26.1172 6.26363 26.1172C8.64693 26.1172 10.5859 24.1782 10.5859 21.7949C10.5859 21.0016 10.3689 20.2256 9.95844 19.551Z" fill="#394267"/>
<path d="M26.6484 2.91211H25.1464V1.41018C25.1464 0.632578 24.5138 0 23.7363 0H5.29295C4.51535 0 3.88271 0.632578 3.88271 1.41018V6.35543C3.88271 6.59812 4.07947 6.79488 4.32217 6.79488C4.56486 6.79488 4.76162 6.59812 4.76162 6.35543V1.41018C4.76162 1.11721 4.99998 0.878906 5.29295 0.878906H23.7363C24.0292 0.878906 24.2675 1.11721 24.2675 1.41018V25.6777C24.2675 25.9706 24.0292 26.2089 23.7363 26.2089H10.7033C11.83 25.0758 12.5273 23.5153 12.5273 21.7949C12.5273 20.9146 12.3444 20.0764 12.0152 19.3157C12.0389 19.3196 12.063 19.3222 12.0878 19.3222H15.9706C16.2134 19.3222 16.4101 19.1255 16.4101 18.8828C16.4101 18.6401 16.2134 18.4433 15.9706 18.4433H12.0878C11.9177 18.4433 11.7704 18.5402 11.6974 18.6817C10.6155 16.8006 8.58504 15.5313 6.26367 15.5313C5.74605 15.5313 5.24309 15.5948 4.76168 15.7137V8.1133C4.76168 7.8706 4.56492 7.67385 4.32223 7.67385C4.07953 7.67385 3.88277 7.8706 3.88277 8.1133V16.0018C1.60646 16.9409 0 19.1837 0 21.7949C0 25.2488 2.80986 28.0586 6.26367 28.0586C6.44262 28.0586 6.61969 28.0506 6.79488 28.0359V28.5898C6.79488 29.3674 7.42746 30 8.20506 30H26.6484C27.4259 30 28.0586 29.3674 28.0586 28.5898V4.32229C28.0586 3.54469 27.4259 2.91211 26.6484 2.91211ZM6.26367 27.1797C3.29449 27.1797 0.878906 24.7641 0.878906 21.7949C0.878906 18.8258 3.29449 16.4102 6.26367 16.4102C9.23285 16.4102 11.6484 18.8258 11.6484 21.7949C11.6484 24.7641 9.23279 27.1797 6.26367 27.1797ZM27.1796 28.5898C27.1796 28.8828 26.9413 29.1211 26.6484 29.1211H8.20506C7.91209 29.1211 7.67379 28.8828 7.67379 28.5898V27.8985C8.37035 27.7377 9.02262 27.4601 9.60932 27.0879H23.7363C24.5138 27.0879 25.1464 26.4554 25.1464 25.6778V3.79102H26.6484C26.9413 3.79102 27.1796 4.02932 27.1796 4.32229V28.5898Z" fill="#394267"/>
<path d="M16.4726 1.94141H11.5859C11.0851 1.94141 10.6777 2.34881 10.6777 2.84961V3.8535C10.6777 4.3543 11.0851 4.7617 11.5859 4.7617H16.4726C16.9734 4.7617 17.3808 4.3543 17.3808 3.8535V2.84961C17.3808 2.34881 16.9734 1.94141 16.4726 1.94141ZM16.5019 3.85356C16.5019 3.86973 16.4888 3.88285 16.4726 3.88285H11.5859C11.5698 3.88285 11.5566 3.86973 11.5566 3.85356V2.84961C11.5566 2.83344 11.5698 2.82031 11.5859 2.82031H16.4726C16.4888 2.82031 16.5019 2.83344 16.5019 2.84961V3.85356Z" fill="#394267"/>
<path d="M20.3554 21.3555H16.4394C15.9386 21.3555 15.5312 21.7629 15.5312 22.2637V23.2676C15.5312 23.7684 15.9386 24.1758 16.4394 24.1758H20.3554C20.8562 24.1758 21.2637 23.7684 21.2637 23.2676V22.2637C21.2637 21.7629 20.8562 21.3555 20.3554 21.3555ZM20.3847 23.2676C20.3847 23.2837 20.3716 23.2969 20.3554 23.2969H16.4394C16.4233 23.2969 16.4101 23.2837 16.4101 23.2676V22.2637C16.4101 22.2475 16.4233 22.2344 16.4394 22.2344H20.3554C20.3716 22.2344 20.3847 22.2475 20.3847 22.2637V23.2676Z" fill="#394267"/>
<path d="M20.8242 6.79492H12.0879C11.8452 6.79492 11.6484 6.99168 11.6484 7.23437C11.6484 7.47706 11.8452 7.67382 12.0879 7.67382H20.8242C21.067 7.67382 21.2637 7.47706 21.2637 7.23437C21.2637 6.99168 21.0669 6.79492 20.8242 6.79492Z" fill="#394267"/>
<path d="M8.67383 9.61522H9.67772C10.1785 9.61522 10.5859 9.20782 10.5859 8.70702V7.70313C10.5859 7.20232 10.1785 6.79492 9.67772 6.79492H8.67383C8.17303 6.79492 7.76562 7.20232 7.76562 7.70313V8.70702C7.76562 9.20782 8.17303 9.61522 8.67383 9.61522ZM8.64453 7.70313C8.64453 7.68695 8.65766 7.67383 8.67383 7.67383H9.67772C9.69389 7.67383 9.70701 7.68695 9.70701 7.70313V8.70702C9.70701 8.72319 9.69389 8.73631 9.67772 8.73631H8.67383C8.65766 8.73631 8.64453 8.72319 8.64453 8.70702V7.70313Z" fill="#394267"/>
<path d="M12.0878 9.61523H15.9706C16.2134 9.61523 16.4101 9.41848 16.4101 9.17578C16.4101 8.93309 16.2134 8.73633 15.9706 8.73633H12.0878C11.8451 8.73633 11.6484 8.93309 11.6484 9.17578C11.6484 9.41848 11.8451 9.61523 12.0878 9.61523Z" fill="#394267"/>
<path d="M20.8242 11.6484H12.0879C11.8452 11.6484 11.6484 11.8452 11.6484 12.0879C11.6484 12.3306 11.8452 12.5273 12.0879 12.5273H20.8242C21.067 12.5273 21.2637 12.3306 21.2637 12.0879C21.2637 11.8452 21.0669 11.6484 20.8242 11.6484Z" fill="#394267"/>
<path d="M7.76562 13.5605C7.76562 14.0613 8.17303 14.4687 8.67383 14.4687H9.67772C10.1785 14.4687 10.5859 14.0613 10.5859 13.5605V12.5566C10.5859 12.0558 10.1785 11.6484 9.67772 11.6484H8.67383C8.17303 11.6484 7.76562 12.0558 7.76562 12.5566V13.5605ZM8.64453 12.5566C8.64453 12.5405 8.65766 12.5273 8.67383 12.5273H9.67772C9.69389 12.5273 9.70701 12.5405 9.70701 12.5566V13.5605C9.70701 13.5767 9.69389 13.5898 9.67772 13.5898H8.67383C8.65766 13.5898 8.64453 13.5767 8.64453 13.5605V12.5566Z" fill="#394267"/>
<path d="M12.0878 14.4688H15.9706C16.2134 14.4688 16.4101 14.272 16.4101 14.0293C16.4101 13.7866 16.2134 13.5898 15.9706 13.5898H12.0878C11.8451 13.5898 11.6484 13.7866 11.6484 14.0293C11.6484 14.272 11.8451 14.4688 12.0878 14.4688Z" fill="#394267"/>
<path d="M20.8242 16.502H12.0879C11.8452 16.502 11.6484 16.6987 11.6484 16.9414C11.6484 17.1841 11.8452 17.3809 12.0879 17.3809H20.8242C21.067 17.3809 21.2637 17.1841 21.2637 16.9414C21.2637 16.6987 21.0669 16.502 20.8242 16.502Z" fill="#394267"/>
</svg>
