<svg width="20" height="20" viewBox="0 0 20 20" fill="none" xmlns="http://www.w3.org/2000/svg">
<g clip-path="url(#clip0_874_276)">
<path d="M7.28682 11.0338C7.28682 10.7833 7.0836 10.5803 6.83286 10.5803H5.24872C4.99827 10.5803 4.79501 10.7833 4.79501 11.0338V12.6178C4.79501 12.8686 4.99827 13.0717 5.24872 13.0717H6.83286C7.0836 13.0717 7.28682 12.8686 7.28682 12.6178V11.0338Z" fill="#394267"/>
<path d="M11.2458 11.0338C11.2458 10.7833 11.0425 10.5803 10.7923 10.5803H9.20794C8.95748 10.5803 8.75423 10.7833 8.75423 11.0338V12.6178C8.75423 12.8686 8.95748 13.0717 9.20794 13.0717H10.7923C11.0425 13.0717 11.2458 12.8686 11.2458 12.6178V11.0338Z" fill="#394267"/>
<path d="M15.205 11.0338C15.205 10.7833 15.0017 10.5803 14.7513 10.5803H13.1671C12.9164 10.5803 12.7132 10.7833 12.7132 11.0338V12.6178C12.7132 12.8686 12.9164 13.0717 13.1671 13.0717H14.7513C15.0017 13.0717 15.205 12.8686 15.205 12.6178V11.0338Z" fill="#394267"/>
<path d="M7.28682 14.9933C7.28682 14.7424 7.0836 14.5396 6.83286 14.5396H5.24872C4.99827 14.5396 4.79501 14.7424 4.79501 14.9933V16.5769C4.79501 16.8276 4.99827 17.0307 5.24872 17.0307H6.83286C7.0836 17.0307 7.28682 16.8276 7.28682 16.5769V14.9933Z" fill="#394267"/>
<path d="M11.2458 14.9933C11.2458 14.7424 11.0425 14.5396 10.7923 14.5396H9.20794C8.95748 14.5396 8.75423 14.7424 8.75423 14.9933V16.5769C8.75423 16.8276 8.95748 17.0307 9.20794 17.0307H10.7923C11.0425 17.0307 11.2458 16.8276 11.2458 16.5769V14.9933Z" fill="#394267"/>
<path d="M15.205 14.9933C15.205 14.7424 15.0017 14.5396 14.7515 14.5396H13.1671C12.9164 14.5396 12.7132 14.7424 12.7132 14.9933V16.5769C12.7132 16.8276 12.9164 17.0307 13.1671 17.0307H14.7515C15.0017 17.0307 15.205 16.8276 15.205 16.5769V14.9933Z" fill="#394267"/>
<path d="M18.0376 2.22695V4.64628C18.0376 5.73979 17.1505 6.62099 16.0571 6.62099H14.8078C13.7144 6.62099 12.8155 5.73979 12.8155 4.64628V2.21826H7.18448V4.64628C7.18448 5.73979 6.28567 6.62099 5.1924 6.62099H3.94283C2.84952 6.62099 1.96246 5.73979 1.96246 4.64628V2.22695C1.0069 2.25575 0.221695 3.04645 0.221695 4.01832V18.1967C0.221695 19.1869 1.02423 20.0001 2.01437 20.0001H17.9856C18.9743 20.0001 19.7783 19.1852 19.7783 18.1967V4.01832C19.7783 3.04645 18.9931 2.25575 18.0376 2.22695ZM17.4573 17.3138C17.4573 17.7417 17.1104 18.0889 16.6823 18.0889H3.28357C2.8555 18.0889 2.50856 17.7417 2.50856 17.3138V9.99014C2.50856 9.56208 2.85546 9.21493 3.28357 9.21493H16.6823C17.1103 9.21493 17.4573 9.56208 17.4573 9.99014L17.4573 17.3138Z" fill="#394267"/>
<path d="M3.93845 5.32396H5.17421C5.5493 5.32396 5.85342 5.02028 5.85342 4.64519V0.67901C5.85342 0.303881 5.5493 0 5.17421 0H3.93845C3.56332 0 3.25923 0.303881 3.25923 0.67901V4.64519C3.25923 5.02028 3.56332 5.32396 3.93845 5.32396Z" fill="#394267"/>
<path d="M14.7919 5.32396H16.0277C16.4025 5.32396 16.7066 5.02028 16.7066 4.64519V0.67901C16.7067 0.303881 16.4026 0 16.0277 0H14.7919C14.4169 0 14.1127 0.303881 14.1127 0.67901V4.64519C14.1127 5.02028 14.4169 5.32396 14.7919 5.32396Z" fill="#394267"/>
</g>
<defs>
<clipPath id="clip0_874_276">
<rect width="20" height="20" fill="white"/>
</clipPath>
</defs>
</svg>
