<svg width="20" height="20" viewBox="0 0 20 20" fill="none" xmlns="http://www.w3.org/2000/svg">
<g clip-path="url(#clip0)">
<path d="M18.1201 4.47037L17.6785 3.14667C17.5104 2.64252 17.0402 2.30377 16.5089 2.30377H12.7975V1.09543C12.7975 0.491486 12.3065 0 11.7027 0H8.30398C7.70034 0 7.20916 0.491486 7.20916 1.09543V2.30377H3.49792C2.96645 2.30377 2.49633 2.64252 2.32818 3.14667L1.88659 4.47037C1.78603 4.77173 1.837 5.10544 2.0227 5.36316C2.2084 5.62088 2.50884 5.77484 2.82653 5.77484H3.28811L4.30404 18.3376C4.37957 19.2697 5.17058 20 6.10518 20H14.1077C15.0421 20 15.8333 19.2697 15.9087 18.3374L16.9246 5.77484H17.1802C17.4979 5.77484 17.7983 5.62088 17.984 5.36331C18.1697 5.10559 18.2207 4.77173 18.1201 4.47037ZM8.38103 1.17188H11.6257V2.30377H8.38103V1.17188ZM14.7406 18.243C14.714 18.5712 14.436 18.8281 14.1077 18.8281H6.10518C5.77682 18.8281 5.4988 18.5712 5.47225 18.243L4.4638 5.77484H15.7489L14.7406 18.243ZM3.07784 4.60297L3.43993 3.51746C3.44817 3.49243 3.47152 3.47565 3.49792 3.47565H16.5089C16.5353 3.47565 16.5585 3.49243 16.5669 3.51746L16.929 4.60297H3.07784Z" fill="#394267"/>
<path d="M12.8717 18.2015C12.8821 18.2021 12.8923 18.2023 12.9027 18.2023C13.2123 18.2023 13.4711 17.9597 13.4873 17.6469L14.0375 7.08443C14.0543 6.76125 13.8059 6.48553 13.4828 6.46874C13.1589 6.4515 12.8841 6.70022 12.8671 7.0234L12.3171 17.5858C12.3003 17.909 12.5485 18.1847 12.8717 18.2015Z" fill="#394267"/>
<path d="M6.54555 17.6483C6.56264 17.9606 6.82113 18.2023 7.13011 18.2023C7.1408 18.2023 7.15178 18.202 7.16262 18.2014C7.48564 18.1838 7.73329 17.9077 7.71574 17.5845L7.13942 7.02204C7.12188 6.69886 6.84569 6.45121 6.52251 6.46891C6.19949 6.48646 5.95184 6.76264 5.96938 7.08582L6.54555 17.6483Z" fill="#394267"/>
<path d="M10.0099 18.2022C10.3336 18.2022 10.5959 17.9399 10.5959 17.6163V7.05383C10.5959 6.73019 10.3336 6.4679 10.0099 6.4679C9.68628 6.4679 9.42398 6.73019 9.42398 7.05383V17.6163C9.42398 17.9399 9.68628 18.2022 10.0099 18.2022Z" fill="#394267"/>
</g>
<defs>
<clipPath id="clip0">
<rect width="20" height="20" fill="white"/>
</clipPath>
</defs>
</svg>
