<svg width="30" height="30" viewBox="0 0 30 30" fill="none" xmlns="http://www.w3.org/2000/svg">
<g clip-path="url(#clip0)">
<path d="M26.9971 1.50325V6.01015C22.0298 -0.617167 12.6304 -1.96284 6.0031 3.00451C0.860669 6.85895 -1.25419 13.5616 0.74501 19.6693C0.812119 19.8751 1.00395 20.0143 1.22039 20.0142C1.27326 20.0143 1.32581 20.0057 1.37586 19.9887C1.63804 19.9028 1.78101 19.6206 1.69528 19.3584C1.23552 17.9514 1.00201 16.4802 1.00345 15C1.00195 7.26985 7.26723 1.00213 14.9973 1.00069C19.579 0.999814 23.8711 3.24133 26.4882 7.00191H20.9986V8.00167H27.9969V1.50325H26.9971Z" fill="#394267"/>
<path d="M29.255 10.3306C29.1619 10.0707 28.8756 9.93556 28.6157 10.0287C28.3661 10.1183 28.2298 10.3872 28.3053 10.6415C30.7118 17.9892 26.7062 25.8966 19.3585 28.3031C13.4843 30.227 7.04363 28.0708 3.51181 22.998H9.00147V21.9982H2.00317V28.4967H3.00293V23.9898C7.97028 30.6171 17.3696 31.9628 23.9969 26.9954C29.1394 23.141 31.2542 16.4384 29.255 10.3306Z" fill="#394267"/>
<path d="M15 14.5001C13.0675 14.5001 11.5009 12.9335 11.5009 11.001C11.5009 9.06845 13.0675 7.50183 15 7.50183C16.9316 7.50402 18.4969 9.06939 18.4991 11.001H19.4989C19.4956 8.71135 17.7751 6.78844 15.4999 6.53157V5.00244H14.5001V6.53157C12.0317 6.8155 10.2608 9.04671 10.5448 11.5151C10.8053 13.7805 12.7197 15.4927 15 15.4999C16.9325 15.4999 18.4991 17.0665 18.4991 18.999C18.4991 20.9316 16.9325 22.4982 15 22.4982C13.0675 22.4982 11.5009 20.9316 11.5009 18.999H10.5011C10.5044 21.2887 12.2249 23.2116 14.5001 23.4684V24.9976H15.4999V23.4684C17.9683 23.1845 19.7391 20.9533 19.4552 18.4849C19.1946 16.2195 17.2803 14.5073 15 14.5001Z" fill="#394267"/>
</g>
<defs>
<clipPath id="clip0">
<rect width="30" height="30" fill="white"/>
</clipPath>
</defs>
</svg>
