<svg width="30" height="30" viewBox="0 0 30 30" fill="none" xmlns="http://www.w3.org/2000/svg">
<path d="M27.6552 24.4341C27.6559 24.4142 27.6563 24.3945 27.6563 24.375C27.6557 23.8779 27.458 23.4013 27.1065 23.0498C26.755 22.6983 26.2784 22.5006 25.7813 22.5V13.8281L27.4688 12.5625C27.5274 12.5185 27.5749 12.4615 27.6074 12.3958C27.64 12.3302 27.6567 12.2579 27.6562 12.1846C27.6558 12.1113 27.6382 12.0392 27.6048 11.974C27.5714 11.9088 27.5232 11.8523 27.4641 11.809L23.4375 8.86652V3.75C23.5618 3.75 23.6811 3.70061 23.769 3.61271C23.8569 3.5248 23.9063 3.40557 23.9063 3.28125V1.40625C23.9063 1.28193 23.8569 1.1627 23.769 1.07479C23.6811 0.986886 23.5618 0.9375 23.4375 0.9375H18.75C18.6257 0.9375 18.5065 0.986886 18.4186 1.07479C18.3306 1.1627 18.2813 1.28193 18.2813 1.40625V3.28125C18.2813 3.40557 18.3306 3.5248 18.4186 3.61271C18.5065 3.70061 18.6257 3.75 18.75 3.75V5.44107L15.2766 2.90279C15.1963 2.84413 15.0994 2.81251 15 2.81251C14.9006 2.81251 14.8037 2.84413 14.7234 2.90279L2.53594 11.809C2.47679 11.8523 2.4286 11.9088 2.39522 11.974C2.36185 12.0392 2.34423 12.1113 2.34377 12.1846C2.34332 12.2579 2.36004 12.3302 2.3926 12.3958C2.42516 12.4615 2.47265 12.5185 2.53126 12.5625L4.21876 13.8281V22.5C3.72165 22.5006 3.24506 22.6983 2.89355 23.0498C2.54204 23.4013 2.34432 23.8779 2.34376 24.375C2.34376 24.3945 2.34411 24.4142 2.34481 24.4341C1.9026 24.5478 1.51707 24.8189 1.26056 25.1966C1.00405 25.5744 0.894187 26.0327 0.951585 26.4857C1.00898 26.9387 1.2297 27.3551 1.57232 27.657C1.91494 27.9588 2.35591 28.1252 2.81251 28.125H27.1875C27.6441 28.1252 28.0851 27.9588 28.4277 27.657C28.7703 27.3551 28.991 26.9387 29.0484 26.4857C29.1058 26.0327 28.996 25.5744 28.7395 25.1966C28.4829 24.8189 28.0974 24.5478 27.6552 24.4341ZM19.2188 1.875H22.9688V2.8125H19.2188V1.875ZM19.6875 6.09375V3.75H22.5V8.18145L19.6432 6.09375H19.6875ZM15 3.8618L26.3997 12.1924L25.3082 13.011L15.2757 5.71465C15.1956 5.65636 15.0991 5.62497 15 5.62497C14.9009 5.62497 14.8044 5.65636 14.7243 5.71465L4.69178 13.011L3.6003 12.1924L15 3.8618ZM1.87501 26.25C1.87527 26.0039 1.9722 25.7677 2.14492 25.5923C2.31765 25.417 2.55234 25.3165 2.79844 25.3125H2.79956C2.82352 25.3158 2.84749 25.3187 2.87192 25.3203C2.9496 25.3252 3.02728 25.3107 3.09794 25.2781C3.16861 25.2454 3.23003 25.1957 3.27668 25.1334C3.32333 25.0711 3.35373 24.9982 3.36514 24.9212C3.37654 24.8442 3.3686 24.7656 3.34202 24.6924C3.30323 24.591 3.28266 24.4836 3.28126 24.375C3.28155 24.1264 3.38042 23.8882 3.55617 23.7124C3.73192 23.5367 3.97021 23.4378 4.21876 23.4375V27.1875H2.81251C2.56396 27.1872 2.32567 27.0883 2.14992 26.9126C1.97417 26.7368 1.8753 26.4986 1.87501 26.25ZM22.0313 27.1875H16.4063V16.875H22.0313V27.1875ZM22.9688 27.1875V16.4062C22.9688 16.2819 22.9194 16.1627 22.8315 16.0748C22.7436 15.9869 22.6243 15.9375 22.5 15.9375H15.9375C15.8132 15.9375 15.694 15.9869 15.6061 16.0748C15.5181 16.1627 15.4688 16.2819 15.4688 16.4062V27.1875H5.15626V13.8325L15 6.67336L24.8438 13.8325V27.1875H22.9688ZM27.1875 27.1875H25.7813V23.4375C26.0298 23.4378 26.2681 23.5367 26.4438 23.7124C26.6196 23.8882 26.7185 24.1264 26.7188 24.375C26.7174 24.4836 26.6968 24.5912 26.658 24.6926C26.6314 24.7658 26.6235 24.8444 26.6349 24.9214C26.6463 24.9984 26.6767 25.0713 26.7233 25.1336C26.77 25.196 26.8314 25.2457 26.9021 25.2783C26.9727 25.3109 27.0504 25.3254 27.1281 25.3205C27.1525 25.3189 27.1765 25.3161 27.2005 25.3127H27.2016C27.4502 25.3146 27.6879 25.4152 27.8624 25.5923C28.0369 25.7694 28.1339 26.0086 28.132 26.2573C28.1302 26.5059 28.0296 26.7436 27.8525 26.9181C27.6753 27.0926 27.4361 27.1896 27.1875 27.1877V27.1875Z" fill="#394267"/>
<path d="M13.125 15.9375H7.5C7.37568 15.9375 7.25645 15.9869 7.16854 16.0748C7.08064 16.1627 7.03125 16.2819 7.03125 16.4062V22.9688C7.03125 23.0931 7.08064 23.2123 7.16854 23.3002C7.25645 23.3881 7.37568 23.4375 7.5 23.4375H13.125C13.2493 23.4375 13.3685 23.3881 13.4565 23.3002C13.5444 23.2123 13.5938 23.0931 13.5938 22.9688V16.4062C13.5938 16.2819 13.5444 16.1627 13.4565 16.0748C13.3685 15.9869 13.2493 15.9375 13.125 15.9375ZM12.6562 19.2188H10.7812V16.875H12.6562V19.2188ZM9.84375 16.875V19.2188H7.96875V16.875H9.84375ZM7.96875 20.1562H9.84375V22.5H7.96875V20.1562ZM10.7812 22.5V20.1562H12.6562V22.5H10.7812Z" fill="#394267"/>
<path d="M18.2456 21.7421C18.3447 21.5029 18.2311 21.2287 17.9919 21.1296C17.7527 21.0306 17.4785 21.1442 17.3795 21.3833C17.2804 21.6225 17.394 21.8967 17.6331 21.9958C17.8723 22.0949 18.1465 21.9813 18.2456 21.7421Z" fill="#394267"/>
</svg>
