<svg width="30" height="30" viewBox="0 0 30 30" fill="none" xmlns="http://www.w3.org/2000/svg">
<path d="M24.4611 13.2729L22.1173 10.9297C21.9406 10.7529 21.6532 10.7529 21.4764 10.9297C21.2993 11.1068 21.2993 11.3938 21.4764 11.5705L23.0314 13.1251H16.4062V14.0626H23.0307L21.4764 15.6172C21.2993 15.7943 21.2993 16.0813 21.4764 16.258C21.5648 16.3464 21.6811 16.3908 21.7969 16.3908C21.9127 16.3908 22.029 16.3464 22.1173 16.258L24.4611 13.9138C24.5462 13.8287 24.5938 13.7133 24.5938 13.5934C24.5938 13.473 24.5462 13.3581 24.4611 13.2729Z" fill="#394267"/>
<path d="M18.75 18.2812C18.4909 18.2812 18.2812 18.4909 18.2812 18.75V23.8078C18.2812 24.2967 17.8917 24.8438 17.3703 24.8438H14.5312V5.05641V4.41342L13.9465 4.1632L6.47339 0.99L6.35119 0.9375H17.3703C17.9407 0.9375 18.2812 1.40259 18.2812 1.85212V8.90625C18.2812 9.16533 18.4909 9.375 18.75 9.375C19.0091 9.375 19.2188 9.16533 19.2188 8.90625V1.85212C19.2188 0.830859 18.3898 0 17.3703 0H5.625C5.3805 0 5.1863 0.188859 5.16455 0.427687L5.15625 0.424125V0.46875V25.5851L13.212 29.01L14.5312 29.5758V28.125V25.7812H17.3703C18.4758 25.7812 19.2188 24.7609 19.2188 23.8078V18.75C19.2188 18.4909 19.0091 18.2812 18.75 18.2812ZM13.5938 5.05641V28.125L6.09375 24.9484V1.875L13.5894 5.04975L13.5938 5.05158V5.05641Z" fill="#394267"/>
</svg>
