<svg width="28" height="20" viewBox="0 0 28 20" fill="none" xmlns="http://www.w3.org/2000/svg">
<path d="M26.5386 20.0001H1.15385C0.516923 20.0001 0 19.4832 0 18.8462C0 18.2093 0.516923 17.6924 1.15385 17.6924H26.5386C27.1755 17.6924 27.6924 18.2093 27.6924 18.8462C27.6924 19.4832 27.1755 20.0001 26.5386 20.0001Z" fill="#394267"/>
<path d="M26.5386 11.1539H1.15385C0.516923 11.1539 0 10.637 0 10C0 9.36311 0.516923 8.84619 1.15385 8.84619H26.5386C27.1755 8.84619 27.6924 9.36311 27.6924 10C27.6924 10.637 27.1755 11.1539 26.5386 11.1539Z" fill="#394267"/>
<path d="M26.5386 2.3077H1.15385C0.516923 2.3077 0 1.79078 0 1.15385C0 0.516923 0.516923 0 1.15385 0H26.5386C27.1755 0 27.6924 0.516923 27.6924 1.15385C27.6924 1.79078 27.1755 2.3077 26.5386 2.3077Z" fill="#394267"/>
</svg>
