<svg width="30" height="30" viewBox="0 0 30 30" fill="none" xmlns="http://www.w3.org/2000/svg">
<path d="M27.5391 2.34375H25.0378V1.875C25.0378 0.841113 24.1967 0 23.1628 0C22.1289 0 21.2878 0.841113 21.2878 1.875V2.34375H13.2019V1.875C13.2019 0.841113 12.3608 0 11.3269 0C10.293 0 9.45187 0.841113 9.45187 1.875V2.34375H6.95068C5.59371 2.34375 4.48975 3.44771 4.48975 4.80469V16.2162C1.86094 17.2733 0 19.849 0 22.8516C0 26.7932 3.20678 30 7.14844 30C10.0468 30 12.5476 28.2662 13.6686 25.7812H27.5391C28.896 25.7812 30 24.6773 30 23.3203V4.80469C30 3.44771 28.896 2.34375 27.5391 2.34375ZM22.4597 1.875C22.4597 1.48729 22.7752 1.17188 23.1629 1.17188C23.5506 1.17188 23.866 1.48729 23.866 1.875V3.98438C23.866 4.37209 23.5506 4.6875 23.1629 4.6875C22.7752 4.6875 22.4597 4.37209 22.4597 3.98438V1.875ZM10.6238 1.875C10.6238 1.48729 10.9392 1.17188 11.3269 1.17188C11.7146 1.17188 12.0301 1.48729 12.0301 1.875V3.98438C12.0301 4.37209 11.7146 4.6875 11.3269 4.6875C10.9392 4.6875 10.6238 4.37209 10.6238 3.98438V1.875ZM6.95074 3.51562H9.45193V3.98438C9.45193 5.01826 10.293 5.85938 11.3269 5.85938C12.3608 5.85938 13.2019 5.01826 13.2019 3.98438V3.51562H21.2879V3.98438C21.2879 5.01826 22.129 5.85938 23.1629 5.85938C24.1968 5.85938 25.0379 5.01826 25.0379 3.98438V3.51562H27.5391C28.2499 3.51562 28.8281 4.09389 28.8281 4.80469V8.32031H5.66168V4.80469C5.66168 4.09389 6.23994 3.51562 6.95074 3.51562ZM7.14844 28.8281C3.85295 28.8281 1.17188 26.1471 1.17188 22.8516C1.17188 19.5561 3.85295 16.875 7.14844 16.875C10.4439 16.875 13.125 19.5561 13.125 22.8516C13.125 26.1471 10.4439 28.8281 7.14844 28.8281ZM27.5391 24.6094H14.0779C14.2207 24.0468 14.2969 23.4579 14.2969 22.8516C14.2969 18.9099 11.0901 15.7031 7.14844 15.7031C6.63873 15.7031 6.14145 15.7571 5.66168 15.8591V9.49219H28.8281V23.3203C28.8281 24.0311 28.2499 24.6094 27.5391 24.6094Z" fill="#394267"/>
<path d="M8.02271 22.2613C7.92773 22.2277 7.83117 22.1929 7.73437 22.1572V20.2366C7.95392 20.3207 8.0949 20.4203 8.10363 20.4265C8.36127 20.619 8.7266 20.5676 8.92113 20.3108C9.11654 20.0529 9.06586 19.6853 8.80793 19.4899C8.78021 19.4689 8.3598 19.1568 7.73437 19.0157V18.6328C7.73437 18.3093 7.47205 18.0469 7.14843 18.0469C6.82482 18.0469 6.5625 18.3093 6.5625 18.6328V19.0124C6.50771 19.025 6.45269 19.0388 6.39697 19.0555C5.68869 19.2683 5.15947 19.8727 5.01597 20.633C4.88425 21.3306 5.11025 22.0055 5.60572 22.3941C5.85099 22.5865 6.15304 22.7623 6.5625 22.9465V25.507C6.25752 25.4729 6.04131 25.3822 5.69302 25.1543C5.42226 24.977 5.0591 25.053 4.88191 25.3239C4.70478 25.5947 4.78066 25.9579 5.05154 26.135C5.64216 26.5213 6.05267 26.6473 6.5625 26.684V27.0703C6.5625 27.3939 6.82482 27.6562 7.14843 27.6562C7.47205 27.6562 7.73437 27.3939 7.73437 27.0703V26.6145C8.71207 26.3531 9.33861 25.5125 9.478 24.6831C9.66187 23.5894 9.09064 22.6388 8.02271 22.2613ZM6.32894 21.472C6.1814 21.3563 6.11806 21.1123 6.16752 20.8504C6.20724 20.6401 6.33105 20.3934 6.5625 20.2539V21.6307C6.47683 21.579 6.39808 21.5262 6.32894 21.472ZM8.32236 24.4888C8.26763 24.8145 8.06795 25.1565 7.73437 25.355V23.4069C8.37879 23.6888 8.36232 24.2514 8.32236 24.4888Z" fill="#394267"/>
<path d="M23.6902 15C24.7257 15 25.5652 14.1605 25.5652 13.125C25.5652 12.0895 24.7257 11.25 23.6902 11.25C22.6547 11.25 21.8152 12.0895 21.8152 13.125C21.8152 14.1605 22.6547 15 23.6902 15Z" fill="#394267"/>
<path d="M17.2449 15C18.2804 15 19.1199 14.1605 19.1199 13.125C19.1199 12.0895 18.2804 11.25 17.2449 11.25C16.2093 11.25 15.3699 12.0895 15.3699 13.125C15.3699 14.1605 16.2093 15 17.2449 15Z" fill="#394267"/>
<path d="M10.7996 15C11.8352 15 12.6746 14.1605 12.6746 13.125C12.6746 12.0895 11.8352 11.25 10.7996 11.25C9.76409 11.25 8.92462 12.0895 8.92462 13.125C8.92462 14.1605 9.76409 15 10.7996 15Z" fill="#394267"/>
<path d="M23.6902 21.4453C24.7257 21.4453 25.5652 20.6058 25.5652 19.5703C25.5652 18.5348 24.7257 17.6953 23.6902 17.6953C22.6547 17.6953 21.8152 18.5348 21.8152 19.5703C21.8152 20.6058 22.6547 21.4453 23.6902 21.4453Z" fill="#394267"/>
<path d="M17.2449 21.4453C18.2804 21.4453 19.1199 20.6058 19.1199 19.5703C19.1199 18.5348 18.2804 17.6953 17.2449 17.6953C16.2093 17.6953 15.3699 18.5348 15.3699 19.5703C15.3699 20.6058 16.2093 21.4453 17.2449 21.4453Z" fill="#394267"/>
</svg>
