<svg width="25" height="31" viewBox="0 0 25 31" fill="none" xmlns="http://www.w3.org/2000/svg">
<path d="M24.2238 21.6413C22.3338 20.0438 21.25 17.7088 21.25 15.235V11.75C21.25 7.35125 17.9825 3.71 13.75 3.1V1.75C13.75 1.05875 13.19 0.5 12.5 0.5C11.81 0.5 11.25 1.05875 11.25 1.75V3.1C7.01625 3.71 3.75 7.35125 3.75 11.75V15.235C3.75 17.7088 2.66625 20.0438 0.765 21.6513C0.27875 22.0675 0 22.6725 0 23.3125C0 24.5188 0.98125 25.5 2.1875 25.5H22.8125C24.0188 25.5 25 24.5188 25 23.3125C25 22.6725 24.7213 22.0675 24.2238 21.6413Z" fill="#394267"/>
<path d="M12.5 30.5C14.7638 30.5 16.6575 28.8863 17.0925 26.75H7.9075C8.3425 28.8863 10.2363 30.5 12.5 30.5Z" fill="#394267"/>
</svg>
