<svg width="25" height="31" viewBox="0 0 25 31" fill="none" xmlns="http://www.w3.org/2000/svg">
<path d="M14.375 5.725C14.03 5.725 13.75 5.445 13.75 5.1V3C13.75 2.31125 13.1888 1.75 12.5 1.75C11.8112 1.75 11.25 2.31125 11.25 3V5.1C11.25 5.445 10.97 5.725 10.625 5.725C10.28 5.725 10 5.44625 10 5.1V3C10 1.62125 11.1212 0.5 12.5 0.5C13.8788 0.5 15 1.62125 15 3V5.1C15 5.44625 14.72 5.725 14.375 5.725Z" fill="#394267"/>
<path d="M12.5 30.5C10.0875 30.5 8.125 28.5375 8.125 26.125C8.125 25.78 8.405 25.5 8.75 25.5C9.095 25.5 9.375 25.78 9.375 26.125C9.375 27.8475 10.7775 29.25 12.5 29.25C14.2225 29.25 15.625 27.8475 15.625 26.125C15.625 25.78 15.905 25.5 16.25 25.5C16.595 25.5 16.875 25.78 16.875 26.125C16.875 28.5375 14.9125 30.5 12.5 30.5Z" fill="#394267"/>
<path d="M23.125 26.75H1.875C0.84125 26.75 0 25.9088 0 24.875C0 24.3263 0.23875 23.8075 0.65625 23.45C2.62625 21.785 3.75 19.3625 3.75 16.7975V13C3.75 8.175 7.675 4.25 12.5 4.25C17.325 4.25 21.25 8.175 21.25 13V16.7975C21.25 19.3638 22.3738 21.785 24.3338 23.4412C24.7613 23.8075 25 24.3263 25 24.875C25 25.9088 24.16 26.75 23.125 26.75ZM12.5 5.5C8.36375 5.5 5 8.86375 5 13V16.7975C5 19.7325 3.715 22.5013 1.47375 24.3963C1.33 24.5188 1.25 24.6925 1.25 24.875C1.25 25.22 1.53 25.5 1.875 25.5H23.125C23.47 25.5 23.75 25.22 23.75 24.875C23.75 24.6925 23.67 24.5188 23.5313 24.4C21.2863 22.5013 20 19.7312 20 16.7975V13C20 8.86375 16.6363 5.5 12.5 5.5Z" fill="#394267"/>
</svg>
