<svg width="30" height="30" viewBox="0 0 30 30" fill="none" xmlns="http://www.w3.org/2000/svg">
<g clip-path="url(#clip0)">
<path d="M8.39024 12.8306L11.1296 9.53504C11.2847 9.34836 11.2592 9.07133 11.0725 8.91617C10.8859 8.76108 10.6088 8.78662 10.4536 8.97325L8.10554 11.7981L7.59231 10.9644C7.46511 10.7578 7.19446 10.6933 6.98768 10.8206C6.78102 10.9479 6.71663 11.2186 6.84384 11.4252L7.67798 12.78C7.83571 13.0361 8.19817 13.0617 8.39024 12.8306Z" fill="#394267"/>
<path d="M6.84394 17.226L7.67808 18.5809C7.8357 18.8369 8.19816 18.8625 8.39023 18.6314L11.1295 15.3358C11.2847 15.1492 11.2592 14.8721 11.0725 14.717C10.8859 14.5619 10.6088 14.5874 10.4536 14.774L8.10552 17.5989L7.5923 16.7652C7.4651 16.5586 7.19445 16.4941 6.98767 16.6214C6.78107 16.7487 6.71668 17.0194 6.84394 17.226Z" fill="#394267"/>
<path d="M6.84394 23.0659L7.67808 24.4207C7.8357 24.6768 8.19816 24.7024 8.39023 24.4712L11.1295 21.1757C11.2847 20.989 11.2592 20.712 11.0725 20.5568C10.8859 20.4017 10.6088 20.4272 10.4536 20.6139L8.10552 23.4388L7.5923 22.6051C7.4651 22.3984 7.19445 22.334 6.98767 22.4612C6.78107 22.5886 6.71668 22.8593 6.84394 23.0659Z" fill="#394267"/>
<path d="M26.2793 24.8088C26.0366 24.8088 25.8398 25.0055 25.8398 25.2483V28.4472C25.8398 28.8188 25.5376 29.1211 25.166 29.1211H4.83398C4.46244 29.1211 4.16016 28.8188 4.16016 28.4472V9.18799C4.16016 8.94523 3.9634 8.74854 3.7207 8.74854C3.47801 8.74854 3.28125 8.94523 3.28125 9.18799V28.4472C3.28125 29.3034 3.97781 30 4.83398 30H25.166C26.0222 30 26.7188 29.3034 26.7188 28.4472V25.2483C26.7188 25.0056 26.522 24.8088 26.2793 24.8088Z" fill="#394267"/>
<path d="M25.166 3.38619H23.0163V1.57031C23.0163 0.704473 22.3119 0 21.446 0C20.5801 0 19.8757 0.704414 19.8757 1.57031V3.38619H16.5703V1.57031C16.5703 0.704414 15.8658 0 15 0C14.1342 0 13.4297 0.704414 13.4297 1.57031V3.38619H10.1242V1.57031C10.1242 0.704473 9.41982 0 8.55393 0C7.68809 0 6.98361 0.704414 6.98361 1.57031V3.38619H4.83398C3.97781 3.38619 3.28125 4.08275 3.28125 4.93893V7.13725C3.28125 7.38 3.47801 7.5767 3.7207 7.5767C3.9634 7.5767 4.16016 7.38 4.16016 7.13725V4.93893C4.16016 4.56738 4.46244 4.2651 4.83398 4.2651H6.98361V4.96289C6.98361 5.82873 7.68803 6.5332 8.55393 6.5332C9.41982 6.5332 10.1242 5.82879 10.1242 4.96289V4.2651H13.4297V4.96289C13.4297 5.82873 14.1341 6.5332 15 6.5332C15.8659 6.5332 16.5703 5.82879 16.5703 4.96289V4.2651H19.8758V4.96289C19.8758 5.82873 20.5802 6.5332 21.4461 6.5332C22.3119 6.5332 23.0164 5.82879 23.0164 4.96289V4.2651H25.166C25.5376 4.2651 25.8398 4.56738 25.8398 4.93893V23.1976C25.8398 23.4403 26.0366 23.637 26.2793 23.637C26.522 23.637 26.7188 23.4403 26.7188 23.1976V4.93893C26.7188 4.08275 26.0222 3.38619 25.166 3.38619ZM9.24539 4.96289C9.24539 5.34416 8.93525 5.6543 8.55398 5.6543C8.17277 5.6543 7.86258 5.34416 7.86258 4.96289C7.86258 4.02615 7.86258 1.86352 7.86258 1.57031C7.86258 1.18904 8.17272 0.878906 8.55398 0.878906C8.93525 0.878906 9.24539 1.18904 9.24539 1.57031V4.96289ZM15.6914 4.96289C15.6914 5.34416 15.3813 5.6543 15 5.6543C14.6187 5.6543 14.3086 5.34416 14.3086 4.96289C14.3086 4.02615 14.3086 1.86352 14.3086 1.57031C14.3086 1.18904 14.6187 0.878906 15 0.878906C15.3813 0.878906 15.6914 1.18904 15.6914 1.57031V4.96289ZM22.1375 4.96289C22.1375 5.34416 21.8273 5.6543 21.4461 5.6543C21.0648 5.6543 20.7547 5.34416 20.7547 4.96289C20.7547 4.02615 20.7547 1.86352 20.7547 1.57031C20.7547 1.18904 21.0648 0.878906 21.4461 0.878906C21.8273 0.878906 22.1375 1.18904 22.1375 1.57031V4.96289Z" fill="#394267"/>
<path d="M12.9925 13.1943H22.2503C23.0096 13.1943 23.6273 12.5766 23.6273 11.8174C23.6273 11.0581 23.0096 10.4404 22.2503 10.4404H12.9925C12.2332 10.4404 11.6155 11.0581 11.6155 11.8174C11.6155 12.5766 12.2332 13.1943 12.9925 13.1943ZM12.9925 11.3193H22.2503C22.5249 11.3193 22.7484 11.5428 22.7484 11.8174C22.7484 12.092 22.5249 12.3154 22.2503 12.3154H12.9925C12.7179 12.3154 12.4944 12.092 12.4944 11.8174C12.4944 11.5428 12.7179 11.3193 12.9925 11.3193Z" fill="#394267"/>
<path d="M12.9925 19.0076H22.2503C23.0096 19.0076 23.6273 18.3899 23.6273 17.6306C23.6273 16.8714 23.0096 16.2537 22.2503 16.2537H12.9925C12.2332 16.2537 11.6155 16.8714 11.6155 17.6306C11.6155 18.3899 12.2332 19.0076 12.9925 19.0076ZM12.9925 17.1326H22.2503C22.5249 17.1326 22.7484 17.356 22.7484 17.6306C22.7484 17.9052 22.5249 18.1287 22.2503 18.1287H12.9925C12.7179 18.1287 12.4944 17.9052 12.4944 17.6306C12.4944 17.356 12.7179 17.1326 12.9925 17.1326Z" fill="#394267"/>
<path d="M12.9925 24.8208H22.2503C23.0096 24.8208 23.6273 24.2031 23.6273 23.4438C23.6273 22.6846 23.0096 22.0669 22.2503 22.0669H12.9925C12.2332 22.0669 11.6155 22.6846 11.6155 23.4438C11.6155 24.2031 12.2332 24.8208 12.9925 24.8208ZM12.9925 22.9458H22.2503C22.5249 22.9458 22.7484 23.1692 22.7484 23.4438C22.7484 23.7185 22.5249 23.9419 22.2503 23.9419H12.9925C12.7179 23.9419 12.4944 23.7185 12.4944 23.4438C12.4944 23.1692 12.7179 22.9458 12.9925 22.9458Z" fill="#394267"/>
</g>
<defs>
<clipPath id="clip0">
<rect width="30" height="30" fill="white"/>
</clipPath>
</defs>
</svg>
